HIERARCHY
ROOT hips
{
	OFFSET 0.000000 104.274902 0.000000
	CHANNELS 6 Xposition Yposition Zposition Xrotation Yrotation Zrotation
	JOINT spine
	{
		OFFSET 0.000000 10.181549 0.131524
		CHANNELS 6 Xposition Yposition Zposition Xrotation Yrotation Zrotation
		JOINT chest
		{
			OFFSET 0.000000 9.893990 -1.470706
			CHANNELS 3 Xrotation Yrotation Zrotation
			JOINT upperChest
			{
				OFFSET 0.000000 9.220787 -1.370637
				CHANNELS 3 Xrotation Yrotation Zrotation
				JOINT neck
				{
					OFFSET 0.000000 16.740372 -2.049022
					CHANNELS 6 Xposition Yposition Zposition Xrotation Yrotation Zrotation
					JOINT head
					{
						OFFSET 0.000000 9.617859 1.684976
						CHANNELS 6 Xposition Yposition Zposition Xrotation Yrotation Zrotation
						JOINT headEnd
						{
							OFFSET 0.000000 22.037384 7.501072
							CHANNELS 6 Xposition Yposition Zposition Xrotation Yrotation Zrotation
							End Site
							{
								OFFSET 0.000000 23.106567 -2.828246
							}
						}
					}
				}
				JOINT rightShoulder
				{
					OFFSET -4.570000 11.014877 -2.160840
					CHANNELS 6 Xposition Yposition Zposition Xrotation Yrotation Zrotation
					JOINT rightUpperArm
					{
						OFFSET -10.592867 -0.524796 -2.232105
						CHANNELS 3 Xrotation Yrotation Zrotation
						JOINT rightLowerArm
						{
							OFFSET -27.841497 0.000000 -0.000002
							CHANNELS 3 Xrotation Yrotation Zrotation
							JOINT rightHand
							{
								OFFSET -28.328812 0.000000 -0.000001
								CHANNELS 3 Xrotation Yrotation Zrotation
								JOINT rightThumbProximal
								{
									OFFSET -2.464798 -1.573990 2.681911
									CHANNELS 6 Xposition Yposition Zposition Xrotation Yrotation Zrotation
									JOINT rightThumbIntermediate
									{
										OFFSET -3.244781 -1.873383 1.873376
										CHANNELS 3 Xrotation Yrotation Zrotation
										JOINT rightThumbDistal
										{
											OFFSET -2.646263 -1.527817 1.527818
											CHANNELS 6 Xposition Yposition Zposition Xrotation Yrotation Zrotation
											JOINT rightHandThumb4
											{
												OFFSET -1.994591 -1.151581 1.151575
												CHANNELS 6 Xposition Yposition Zposition Xrotation Yrotation Zrotation
												End Site
												{
													OFFSET -1.860176 -1.142715 1.365483
												}
											}
										}
									}
								}
								JOINT rightIndexProximal
								{
									OFFSET -9.108299 -0.517883 2.259803
									CHANNELS 6 Xposition Yposition Zposition Xrotation Yrotation Zrotation
									JOINT rightIndexIntermediate
									{
										OFFSET -3.699997 0.000000 0.000000
										CHANNELS 3 Xrotation Yrotation Zrotation
										JOINT rightIndexDistal
										{
											OFFSET -2.850006 0.000000 0.000000
											CHANNELS 3 Xrotation Yrotation Zrotation
											JOINT rightHandIndex4
											{
												OFFSET -2.772194 0.000000 0.000000
												CHANNELS 3 Xrotation Yrotation Zrotation
												End Site
												{
													OFFSET -2.772202 0.000000 -0.000484
												}
											}
										}
									}
								}
								JOINT rightMiddleProximal
								{
									OFFSET -9.532501 0.000000 -0.000000
									CHANNELS 6 Xposition Yposition Zposition Xrotation Yrotation Zrotation
									JOINT rightMiddleIntermediate
									{
										OFFSET -3.699997 0.000000 0.000000
										CHANNELS 3 Xrotation Yrotation Zrotation
										JOINT rightMiddleDistal
										{
											OFFSET -2.949997 0.000000 0.000000
											CHANNELS 3 Xrotation Yrotation Zrotation
											JOINT rightHandMiddle4
											{
												OFFSET -2.946594 0.000000 0.000000
												CHANNELS 3 Xrotation Yrotation Zrotation
												End Site
												{
													OFFSET -2.946602 0.000000 -0.000982
												}
											}
										}
									}
								}
								JOINT rightRingProximal
								{
									OFFSET -9.103600 -0.043106 -1.865100
									CHANNELS 6 Xposition Yposition Zposition Xrotation Yrotation Zrotation
									JOINT rightRingIntermediate
									{
										OFFSET -3.379303 0.000000 0.000000
										CHANNELS 3 Xrotation Yrotation Zrotation
										JOINT rightRingDistal
										{
											OFFSET -2.889694 0.000000 0.000000
											CHANNELS 3 Xrotation Yrotation Zrotation
											JOINT rightHandRing4
											{
												OFFSET -2.638802 0.000000 0.000000
												CHANNELS 3 Xrotation Yrotation Zrotation
												End Site
												{
													OFFSET -2.638802 0.000000 0.004218
												}
											}
										}
									}
								}
								JOINT rightLittleProximal
								{
									OFFSET -8.076698 -0.486725 -3.806299
									CHANNELS 6 Xposition Yposition Zposition Xrotation Yrotation Zrotation
									JOINT rightLittleIntermediate
									{
										OFFSET -3.600006 0.000000 0.000000
										CHANNELS 3 Xrotation Yrotation Zrotation
										JOINT rightLittleDistal
										{
											OFFSET -2.099998 0.000000 0.000000
											CHANNELS 3 Xrotation Yrotation Zrotation
											JOINT rightHandPinky4
											{
												OFFSET -2.115791 0.000000 0.000000
												CHANNELS 3 Xrotation Yrotation Zrotation
												End Site
												{
													OFFSET -2.115799 0.000000 0.000174
												}
											}
										}
									}
								}
							}
						}
					}
				}
				JOINT leftShoulder
				{
					OFFSET 4.570400 11.014679 -2.160816
					CHANNELS 6 Xposition Yposition Zposition Xrotation Yrotation Zrotation
					JOINT leftUpperArm
					{
						OFFSET 10.592373 -0.524597 -2.232116
						CHANNELS 3 Xrotation Yrotation Zrotation
						JOINT leftLowerArm
						{
							OFFSET 27.841488 0.000000 0.000001
							CHANNELS 3 Xrotation Yrotation Zrotation
							JOINT leftHand
							{
								OFFSET 28.328808 0.000000 -0.000000
								CHANNELS 3 Xrotation Yrotation Zrotation
								JOINT leftThumbProximal
								{
									OFFSET 2.466103 -1.576202 2.681698
									CHANNELS 6 Xposition Yposition Zposition Xrotation Yrotation Zrotation
									JOINT leftThumbIntermediate
									{
										OFFSET 3.243317 -1.872528 1.872530
										CHANNELS 3 Xrotation Yrotation Zrotation
										JOINT leftThumbDistal
										{
											OFFSET 2.647881 -1.528763 1.528754
											CHANNELS 6 Xposition Yposition Zposition Xrotation Yrotation Zrotation
											JOINT leftHandThumb4
											{
												OFFSET 1.998924 -1.154083 1.154080
												CHANNELS 6 Xposition Yposition Zposition Xrotation Yrotation Zrotation
												End Site
												{
													OFFSET 1.884041 -1.149155 1.337651
												}
											}
										}
									}
								}
								JOINT leftIndexProximal
								{
									OFFSET 9.109299 -0.518005 2.259900
									CHANNELS 6 Xposition Yposition Zposition Xrotation Yrotation Zrotation
									JOINT leftIndexIntermediate
									{
										OFFSET 3.699997 0.000000 0.000000
										CHANNELS 3 Xrotation Yrotation Zrotation
										JOINT leftIndexDistal
										{
											OFFSET 2.850006 0.000000 0.000000
											CHANNELS 3 Xrotation Yrotation Zrotation
											JOINT leftHandIndex4
											{
												OFFSET 2.774895 0.000000 0.000000
												CHANNELS 3 Xrotation Yrotation Zrotation
												End Site
												{
													OFFSET 2.774902 0.000000 -0.000072
												}
											}
										}
									}
								}
								JOINT leftMiddleProximal
								{
									OFFSET 9.533401 0.000000 0.000000
									CHANNELS 6 Xposition Yposition Zposition Xrotation Yrotation Zrotation
									JOINT leftMiddleIntermediate
									{
										OFFSET 3.699997 0.000000 0.000000
										CHANNELS 3 Xrotation Yrotation Zrotation
										JOINT leftMiddleDistal
										{
											OFFSET 2.949997 0.000000 0.000000
											CHANNELS 3 Xrotation Yrotation Zrotation
											JOINT leftHandMiddle4
											{
												OFFSET 2.952896 0.000000 0.000000
												CHANNELS 3 Xrotation Yrotation Zrotation
												End Site
												{
													OFFSET 2.952904 0.000000 0.000165
												}
											}
										}
									}
								}
								JOINT leftRingProximal
								{
									OFFSET 9.104500 -0.042999 -1.865101
									CHANNELS 6 Xposition Yposition Zposition Xrotation Yrotation Zrotation
									JOINT leftRingIntermediate
									{
										OFFSET 3.149994 0.000000 0.000000
										CHANNELS 3 Xrotation Yrotation Zrotation
										JOINT leftRingDistal
										{
											OFFSET 2.950005 0.000000 0.000000
											CHANNELS 3 Xrotation Yrotation Zrotation
											JOINT leftHandRing4
											{
												OFFSET 2.644302 0.000000 0.000000
												CHANNELS 3 Xrotation Yrotation Zrotation
												End Site
												{
													OFFSET 2.644302 0.000000 0.000083
												}
											}
										}
									}
								}
								JOINT leftLittleProximal
								{
									OFFSET 8.077805 -0.486893 -3.806302
									CHANNELS 6 Xposition Yposition Zposition Xrotation Yrotation Zrotation
									JOINT leftLittleIntermediate
									{
										OFFSET 3.600006 0.000000 0.000000
										CHANNELS 3 Xrotation Yrotation Zrotation
										JOINT leftLittleDistal
										{
											OFFSET 2.099998 0.000000 0.000000
											CHANNELS 3 Xrotation Yrotation Zrotation
											JOINT leftHandPinky4
											{
												OFFSET 2.125496 0.000000 0.000000
												CHANNELS 3 Xrotation Yrotation Zrotation
												End Site
												{
													OFFSET 2.125504 0.000000 -0.001254
												}
											}
										}
									}
								}
							}
						}
					}
				}
			}
		}
	}
	JOINT rightUpperLeg
	{
		OFFSET -8.207800 -6.751701 -1.599544
		CHANNELS 6 Xposition Yposition Zposition Xrotation Yrotation Zrotation
		JOINT rightLowerLeg
		{
			OFFSET 0.000004 -44.370152 0.345934
			CHANNELS 3 Xrotation Yrotation Zrotation
			JOINT rightFoot
			{
				OFFSET 0.000004 -44.423664 -3.043535
				CHANNELS 3 Xrotation Yrotation Zrotation
				JOINT rightToes
				{
					OFFSET 0.000001 -8.728691 10.710592
					CHANNELS 3 Xrotation Yrotation Zrotation
					JOINT rightToesEnd
					{
						OFFSET 0.000000 -0.000665 9.278101
						CHANNELS 3 Xrotation Yrotation Zrotation
						End Site
						{
							OFFSET 0.000000 -0.000665 9.278103
						}
					}
				}
			}
		}
	}
	JOINT leftUpperLeg
	{
		OFFSET 8.207800 -6.751701 -1.599544
		CHANNELS 6 Xposition Yposition Zposition Xrotation Yrotation Zrotation
		JOINT leftLowerLeg
		{
			OFFSET 0.000004 -44.370037 0.346940
			CHANNELS 3 Xrotation Yrotation Zrotation
			JOINT leftFoot
			{
				OFFSET 0.000004 -44.423611 -3.044388
				CHANNELS 3 Xrotation Yrotation Zrotation
				JOINT leftToes
				{
					OFFSET 0.000001 -8.728690 10.710592
					CHANNELS 3 Xrotation Yrotation Zrotation
					JOINT leftToesEnd
					{
						OFFSET 0.000000 -0.000680 9.278101
						CHANNELS 3 Xrotation Yrotation Zrotation
						End Site
						{
							OFFSET 0.000000 -0.000680 9.278101
						}
					}
				}
			}
		}
	}
}
MOTION
Frames: 4
Frame Time: 0.033333
-0.021379 98.460144 2.046792 -1.370590 -10.632168 2.924754 0.000000 10.181537 0.131523 0.727434 2.621577 -1.620837 5.709620 0.300622 -0.541813 5.708249 0.315972 -0.528441 0.000000 16.740366 -2.049019 1.569751 1.711413 -1.263658 -0.000003 9.617817 1.684981 -5.105847 9.274619 -7.366147 0.000000 22.037384 7.501072 -0.000000 -0.000000 -0.000000 -4.570001 11.014868 -2.160838 0.798790 8.644827 10.005162 24.998380 1.939972 58.919363 -0.000040 50.895616 0.000063 5.817737 -1.935247 -6.004405 -2.464818 -1.573991 2.681913 -2.369390 -12.758218 -19.325211 10.122432 -19.070834 4.539530 -2.646258 -1.527804 1.527811 5.079720 -16.963950 1.121655 -1.994590 -1.151577 1.151575 0.000002 -0.000003 -0.000000 -9.108312 -0.517904 2.259804 0.000153 -0.046320 0.380064 1.663191 -4.517109 40.410859 3.201870 -5.855900 57.308128 0.000001 -0.000001 -0.000001 -9.532516 0.000009 0.000003 0.382092 -2.277393 19.046128 2.335471 -5.201814 48.334127 3.620034 -6.102704 61.320919 -0.000001 -0.000002 0.000002 -9.103601 -0.043116 -1.865097 1.827825 -4.702998 42.458768 3.299548 -5.917130 58.260612 4.165757 -6.369269 66.341614 -0.000001 0.000000 0.000002 -8.076706 -0.486717 -3.806297 3.616273 -6.100661 61.285518 4.152060 -6.363292 66.217946 4.618156 -6.547686 70.361897 -0.000002 -0.000000 0.000000 4.570401 11.014700 -2.160814 0.632511 -9.839800 -7.896360 19.675762 3.075256 -71.081260 -0.000027 -46.630210 -0.000010 4.764764 3.333211 3.539786 2.466096 -1.576205 2.681694 -1.352088 12.706708 20.180602 10.337691 18.004198 -4.241781 2.647873 -1.528746 1.528753 7.265300 20.087081 -0.978040 1.998913 -1.154083 1.154073 0.000002 0.000003 0.000005 9.109291 -0.518016 2.259896 0.151633 1.440051 -12.023162 1.828370 4.677349 -42.683850 3.203764 5.820253 -57.633587 -0.000000 0.000002 0.000000 9.533422 -0.000004 -0.000004 0.564687 2.735561 -23.323573 2.689966 5.462535 -52.410439 3.924900 6.216696 -64.503391 -0.000003 0.000004 0.000003 9.104505 -0.042995 -1.865106 1.428203 4.203576 -37.518840 3.931484 6.219808 -64.564112 4.885571 6.586958 -73.103310 -0.000004 0.000002 -0.000001 8.077799 -0.486872 -3.806304 5.434463 7.866334 -48.735859 5.037927 2.544185 -74.474060 5.687977 6.777595 -79.990866 0.000006 0.000000 -0.000001 -8.207801 -6.751721 -1.599546 -19.159060 -5.057005 -2.944776 41.067889 -7.502375 -6.810470 -16.018020 -1.180353 6.383148 -5.130181 -0.000006 -0.000003 0.000000 0.000001 0.000000 8.207800 -6.751713 -1.599546 -13.033252 2.518992 -8.321891 33.513921 10.111569 5.964333 -19.228874 6.442030 -3.478719 -0.038610 0.000000 -0.000001 -0.000000 0.000000 0.000000 
0.612772 98.159828 2.696568 -3.172167 -12.731862 2.625116 -0.000000 10.181551 0.131523 3.114410 2.482240 -2.366080 6.317368 0.302741 -0.444198 6.314427 0.318377 -0.430590 0.000000 16.740379 -2.049022 1.807655 1.707310 -1.293981 -0.000000 9.617858 1.684975 -6.506569 9.135429 -6.615777 0.000001 22.037399 7.501071 -0.000000 -0.000000 -0.000001 -4.570000 11.014881 -2.160840 0.841986 8.169297 9.415919 23.174997 3.445161 55.856276 -0.000036 64.137505 0.000075 -3.138426 -5.767027 -7.282798 -2.464811 -1.573993 2.681911 -2.369393 -12.758217 -19.325204 10.122429 -19.070832 4.539532 -2.646256 -1.527805 1.527815 5.079718 -16.963944 1.121654 -1.994583 -1.151570 1.151577 0.000002 -0.000003 -0.000000 -9.108308 -0.517870 2.259803 0.003532 -0.221944 1.821450 1.779119 -4.649418 41.861536 3.351682 -5.948890 58.764953 -0.000001 -0.000000 0.000000 -9.532507 0.000009 -0.000000 0.388774 -2.296649 19.213681 2.320212 -5.188242 48.165480 3.602891 -6.093348 61.159481 -0.000000 -0.000000 0.000002 -9.103610 -0.043110 -1.865099 1.711803 -4.573392 41.024008 3.075373 -5.773192 56.059669 3.925167 -6.259030 64.154225 0.000001 0.000002 0.000004 -8.076690 -0.486728 -3.806299 3.330050 -5.935787 58.555984 3.733809 -6.163223 62.385739 4.189051 -6.379345 66.551376 0.000002 0.000003 -0.000000 4.570402 11.014693 -2.160816 0.738510 -10.401779 -7.586844 20.106767 7.497598 -72.420639 0.000000 -62.694778 0.000015 -4.527414 0.912323 3.622323 2.466092 -1.576218 2.681701 -1.352089 12.706718 20.180600 10.337686 18.004194 -4.241784 2.647901 -1.528746 1.528747 7.265301 20.087083 -0.978043 1.998909 -1.154090 1.154075 0.000001 -0.000001 -0.000000 9.109285 -0.518010 2.259901 0.200115 1.651390 -13.821184 1.978383 4.834395 -44.492979 3.389684 5.933431 -59.449324 0.000002 0.000003 -0.000001 9.533386 0.000002 0.000003 0.591527 2.796994 -23.880341 2.712144 5.479441 -52.642816 3.952841 6.229860 -64.761108 0.000001 0.000002 -0.000004 9.104484 -0.042997 -1.865096 1.355644 4.107605 -36.517528 3.743493 6.127393 -62.816164 4.692039 6.525415 -71.408344 -0.000001 -0.000002 -0.000003 8.077782 -0.486901 -3.806295 5.124467 7.803348 -46.461983 4.657833 2.426758 -71.163570 5.305354 6.699333 -76.730830 0.000000 -0.000001 -0.000000 -8.207801 -6.751694 -1.599544 -21.870850 -7.384677 -3.694860 47.196238 -6.520990 -7.768109 -11.556467 -0.566035 1.984213 -8.534241 -0.130573 3.596112 -0.000000 -0.000002 0.000000 8.207799 -6.751690 -1.599544 -11.715263 7.576973 -7.043612 36.414785 8.115492 5.524629 -19.174651 4.488533 -2.550642 -5.203673 -0.000002 -0.000001 -0.000000 -0.000000 0.000000 
1.299711 99.124725 3.107097 -5.683554 -16.722356 1.545072 -0.000000 10.181544 0.131523 6.400998 2.813531 -3.160861 7.006304 0.411880 -0.064885 6.999081 0.426252 -0.047674 -0.000000 16.740370 -2.049021 2.125485 1.841122 -1.715955 0.000000 9.617848 1.684976 -7.850360 9.297162 -5.974561 -0.000000 22.037354 7.501074 0.000000 -0.000000 -0.000000 -4.570001 11.014866 -2.160837 0.871163 8.728966 10.065628 19.381227 3.585288 49.667066 -0.000369 82.628480 0.000461 -8.754498 -8.564204 -9.708386 -2.464803 -1.573991 2.681906 -2.369390 -12.758219 -19.325207 10.122427 -19.070834 4.539531 -2.646266 -1.527804 1.527811 5.079721 -16.963950 1.121655 -1.994601 -1.151584 1.151575 -0.000000 -0.000002 0.000001 -9.108286 -0.517865 2.259804 0.029239 -0.638338 5.245561 2.067763 -4.951600 45.309583 3.716824 -6.154355 62.227367 0.000003 -0.000001 -0.000000 -9.532487 0.000006 -0.000001 0.464755 -2.503843 21.027665 2.428523 -5.282823 49.352478 3.717029 -6.154460 62.229239 0.000001 -0.000002 0.000002 -9.103612 -0.043080 -1.865104 1.695341 -4.554456 40.817149 2.911243 -5.659848 54.412050 3.717253 -6.154577 62.231349 -0.000001 -0.000000 0.000003 -8.076690 -0.486730 -3.806301 3.141855 -5.817155 56.718051 3.320586 -5.930010 58.464302 3.717413 -6.154668 62.232872 -0.000002 0.000002 -0.000002 4.570402 11.014646 -2.160811 0.788159 -11.616006 -8.311387 17.044792 11.317721 -72.340938 0.000013 -79.756276 0.000012 -10.395800 -1.481136 3.653717 2.466115 -1.576203 2.681696 -1.352092 12.706710 20.180605 10.337688 18.004193 -4.241784 2.647895 -1.528741 1.528746 7.265305 20.087077 -0.978040 1.998928 -1.154081 1.154076 -0.000000 -0.000003 0.000002 9.109299 -0.518013 2.259897 0.301581 2.019383 -16.987871 2.254382 5.099142 -47.680318 3.725566 6.118202 -62.648025 -0.000001 -0.000001 -0.000002 9.533413 -0.000002 -0.000002 0.678216 2.984884 -25.599009 2.827886 5.565494 -53.845673 4.073585 6.285037 -65.868787 -0.000003 0.000001 -0.000002 9.104522 -0.043001 -1.865105 1.348661 4.098171 -36.419880 3.606879 6.055688 -61.528810 4.521093 6.465773 -69.897274 0.000000 0.000005 0.000001 8.077797 -0.486901 -3.806306 4.911817 7.752692 -44.890814 4.290751 2.289885 -67.904067 4.887671 6.587579 -73.121567 -0.000001 -0.000001 -0.000004 -8.207798 -6.751709 -1.599541 -26.801992 -9.681133 -4.125052 55.974572 -6.768872 -8.903008 -6.038472 0.495688 -2.374348 1.139355 -0.027294 1.645573 -0.000001 0.000002 -0.000001 8.207798 -6.751698 -1.599546 -9.604572 12.161989 -5.910278 37.519810 5.161837 6.303855 -13.135273 4.167966 -2.052387 -12.183818 -0.000002 -0.000002 0.000000 -0.000000 0.000000 
2.032992 100.312332 3.245981 -9.329397 -22.232597 -0.212325 0.000000 10.181548 0.131523 10.707546 3.459595 -4.223823 7.905001 0.603103 0.540652 7.890560 0.622075 0.565964 -0.000001 16.740383 -2.049025 2.515751 2.159423 -2.534712 -0.000001 9.617872 1.684975 -9.687302 10.133844 -5.538129 -0.000000 22.037399 7.501069 -0.000000 -0.000000 -0.000000 -4.570001 11.014887 -2.160846 0.873493 10.692997 12.038009 10.363413 3.289183 40.624982 0.000291 101.627129 -0.000251 -7.143315 -8.724268 -7.803696 -2.464792 -1.573993 2.681903 -2.369392 -12.758214 -19.325207 10.122436 -19.070839 4.539529 -2.646271 -1.527798 1.527822 5.079723 -16.963950 1.121654 -1.994594 -1.151584 1.151571 -0.000001 0.000000 0.000001 -9.108295 -0.517866 2.259798 0.116703 -1.271208 10.491276 2.544138 -5.379489 50.596727 4.298784 -6.425551 67.535367 -0.000001 -0.000002 -0.000001 -9.532506 0.000007 -0.000011 0.636920 -2.911967 24.670524 2.675634 -5.484418 51.985830 3.965519 -6.278291 64.523827 -0.000003 -0.000001 0.000004 -9.103596 -0.043107 -1.865103 1.827146 -4.702275 42.450637 2.843598 -5.611041 53.723054 3.560744 -6.070091 60.761657 0.000001 0.000001 -0.000001 -8.076684 -0.486725 -3.806305 3.143219 -5.818054 56.731497 2.980734 -5.708676 55.113568 3.247428 -5.884767 57.753785 -0.000004 -0.000001 -0.000000 4.570400 11.014694 -2.160819 0.726584 -13.863420 -10.353284 6.591845 13.293734 -66.410681 0.000095 -94.036091 0.000059 -9.065218 -2.268301 2.273821 2.466096 -1.576218 2.681705 -1.352093 12.706714 20.180602 10.337687 18.004196 -4.241781 2.647889 -1.528758 1.528752 7.265308 20.087083 -0.978041 1.998924 -1.154085 1.154086 -0.000001 0.000002 0.000003 9.109301 -0.518012 2.259911 0.478647 2.526860 -21.449239 2.667342 5.445112 -52.172601 4.215129 6.346171 -67.155506 0.000002 0.000002 -0.000000 9.533414 0.000012 0.000001 0.847929 3.315403 -28.686327 3.052347 5.721976 -56.127756 4.289802 6.376929 -67.829482 0.000003 -0.000002 -0.000001 9.104514 -0.042994 -1.865093 1.447767 4.228859 -37.784665 3.555473 6.027673 -61.040533 4.383625 6.414135 -68.671815 -0.000001 -0.000002 -0.000002 8.077789 -0.486892 -3.806292 4.909258 7.752046 -44.871737 3.994152 2.161379 -65.215561 4.459025 6.442883 -69.345162 0.000002 0.000000 0.000000 -8.207800 -6.751701 -1.599539 -34.062587 -9.428859 -3.162923 67.989021 -7.848079 -9.470884 -0.092774 -0.267418 -5.707362 18.014923 0.000001 -0.000001 0.000001 -0.000002 0.000000 8.207800 -6.751710 -1.599542 -5.750451 13.202488 -6.576896 36.302558 4.956409 8.103001 -6.393346 4.091132 -3.358672 -17.249301 -0.000004 0.000000 -0.000000 -0.000000 0.000000 
